<?xml version="1.0" encoding="UTF-8"?>
<!DOCTYPE svg PUBLIC "-//W3C//DTD SVG 1.1//EN" "http://www.w3.org/Graphics/SVG/1.1/DTD/svg11.dtd">
<!-- Creator: CorelDRAW X7 -->
<svg xmlns="http://www.w3.org/2000/svg" xml:space="preserve" width="10cm" height="9cm" version="1.1" style="shape-rendering:geometricPrecision; text-rendering:geometricPrecision; image-rendering:optimizeQuality; fill-rule:evenodd; clip-rule:evenodd"
viewBox="0 0 10000 9000"
 xmlns:xlink="http://www.w3.org/1999/xlink">
 <defs>
  <style type="text/css">
   <![CDATA[
    .fil21 {fill:#02CCC0}
    .fil33 {fill:#04B19D}
    .fil12 {fill:#06BFAD}
    .fil8 {fill:#07085B}
    .fil52 {fill:#0BCDC2}
    .fil56 {fill:#181966}
    .fil14 {fill:#1B2072}
    .fil40 {fill:#1D2172}
    .fil25 {fill:#282828}
    .fil54 {fill:#2E2F72}
    .fil23 {fill:#333333}
    .fil57 {fill:#353435}
    .fil58 {fill:#3A3839}
    .fil22 {fill:#3C5E8C}
    .fil42 {fill:#4188E4}
    .fil37 {fill:#4D5190}
    .fil35 {fill:#4D5295}
    .fil53 {fill:#504878}
    .fil50 {fill:#50D4CC}
    .fil24 {fill:#55769E}
    .fil20 {fill:#55769F}
    .fil30 {fill:#83B1C6}
    .fil34 {fill:#8C482E}
    .fil48 {fill:#B5D4DE}
    .fil9 {fill:#B5D5E0}
    .fil41 {fill:#BADEEF}
    .fil39 {fill:#BADEF0}
    .fil45 {fill:#C6E0E8}
    .fil28 {fill:#C8E0E8}
    .fil16 {fill:#C8E1E8}
    .fil2 {fill:#CAE2E9}
    .fil10 {fill:#D9EDF6}
    .fil5 {fill:#DEEEF1}
    .fil27 {fill:#DFEEF2}
    .fil6 {fill:#E03168}
    .fil31 {fill:#E9F5F9}
    .fil49 {fill:#F0A895}
    .fil29 {fill:#F1FCFE}
    .fil55 {fill:#F46C28}
    .fil11 {fill:#F4A641}
    .fil38 {fill:#F6B956}
    .fil46 {fill:#FA9495}
    .fil36 {fill:#FBF9EB}
    .fil44 {fill:#FCBBB7}
    .fil7 {fill:#FDB546}
    .fil43 {fill:#FDE2CA}
    .fil4 {fill:#FDE4CB}
    .fil18 {fill:#FDF1E2}
    .fil51 {fill:#FDF8F4}
    .fil32 {fill:#FE5500}
    .fil15 {fill:#FE5B7E}
    .fil26 {fill:#FEC0BB}
    .fil17 {fill:#FECC67}
    .fil3 {fill:#FEE9D5}
    .fil13 {fill:#FEF5EB}
    .fil47 {fill:#FEFCFA}
    .fil0 {fill:#FEFEFE}
    .fil19 {fill:#FFF1E4}
    .fil1 {fill:white}
   ]]>
  </style>
 </defs>
 <g id="Layer_x0020_1">
  <metadata id="CorelCorpID_0Corel-Layer"/>
  <g id="_2243337117872">
   <path class="fil0" d="M0 9000l8 0 0 -3890c0,-75 -16,-164 25,-229l-6 -33 15 -11c109,-42 356,-32 475,-28l-64 -258c-48,-6 -121,-28 -81,-93 37,-61 115,-16 155,-43 -17,-27 -139,-45 -172,-44 -70,2 -64,72 -124,106 -50,28 -145,6 -125,-65 24,-79 125,-25 168,-57 -13,-23 -98,-30 -137,-69 -92,-91 48,-226 147,-11 24,55 64,103 133,73 4,-24 -64,-49 -86,-78 -37,-52 -18,-101 56,-84l-43 -368 134 13c20,-26 -10,-246 -11,-297 -1,-106 8,-207 36,-310 30,-114 157,-380 258,-435 76,-106 606,-417 745,-487 203,-135 523,-277 690,-450 95,-99 178,-201 275,-301 39,-40 117,-94 167,-120 70,-38 141,-54 204,-87 -1,-95 -53,-37 0,-167 15,-36 -8,-48 5,-88 10,-32 38,-33 55,-55 30,-40 18,-105 103,-117 46,-6 51,12 93,-17 25,-18 38,-31 70,-41 45,-14 121,5 179,17 52,11 75,66 117,103 76,68 27,104 47,158 23,66 42,21 53,176 513,77 1037,-26 1507,-233 401,-177 780,-417 1174,-612 716,-354 2156,-803 2530,224 25,97 38,369 -4,454 7,54 -14,162 -15,227 -1,81 10,141 27,219 91,236 178,245 406,305 180,48 318,158 380,337 24,47 46,115 48,168 45,66 23,396 20,487 -32,190 -68,446 -65,636 2,154 52,428 169,536 74,-16 223,-55 247,51 14,63 4,4783 4,4888l8 0 0 -9000 -10000 0 0 9000z"/>
   <path class="fil1" d="M9828 4261c54,82 57,399 57,503l-7 296c-7,107 -56,626 -101,692 -4,153 -153,559 -215,716 -45,112 -88,207 -164,302 -66,82 -192,137 -280,194l39 42c32,14 112,45 130,70l-83 29c79,98 122,173 135,301 11,102 -7,277 -55,368 -47,87 -171,138 -257,184l-1447 779c-120,64 -173,107 -315,62 -109,-34 -219,-76 -327,-113 -220,-77 -440,-153 -659,-229l-986 -343c-155,-54 -146,-65 -8,-138 79,-75 74,-125 124,-187l7 -39c24,-97 36,-282 -26,-366 -86,-20 -211,-73 -292,-80l-2065 613 -27 353c32,22 93,44 97,83 -29,18 -236,19 -265,1 -13,-21 -32,-311 -36,-363l-459 133 -49 164 -5 70c-44,12 -240,16 -270,-7 1,-32 58,-55 84,-73 10,-52 33,-185 27,-233 -27,-51 -108,-55 -152,-91l-142 29 -82 -6 1 -1176c-165,-55 -330,-210 -429,-350 -123,-176 -153,-377 -212,-580 -70,-20 -135,-37 -204,-62 -146,-54 -49,-84 -88,-168 -46,-10 -49,108 -135,61 -61,-33 -260,-179 -284,-223 -28,-52 81,-94 71,-133 -51,-20 -137,39 -185,0 -24,-19 -84,-113 -103,-143 -69,-113 -101,-204 -153,-322 -41,65 -25,154 -25,229l0 3890 9984 0c0,-105 10,-4825 -4,-4888 -24,-106 -173,-67 -247,-51 13,59 83,123 87,200z"/>
   <path class="fil2" d="M4824 6354l-773 229c-309,93 -247,139 -247,-625 0,-111 0,-221 0,-331 0,-72 -16,-261 28,-312 33,-38 632,-205 758,-243 45,-13 203,-83 230,-30 20,42 12,1181 4,1312zm-12 -1604l-1341 397c-32,-3 -26,-33 -8,-50 20,-21 1313,-406 1335,-402 32,4 27,45 14,55zm-17 -220c24,1 36,29 15,51 -17,18 -59,27 -84,34 -59,17 -118,35 -176,52 -157,48 -1038,317 -1069,316 -31,0 -40,-25 -18,-47 27,-28 1332,-406 1332,-406zm1 -161c24,1 34,30 14,51 -23,24 -221,75 -260,87 -119,35 -239,71 -358,107l-716 211c-31,1 -35,-24 -17,-45 28,-33 567,-181 618,-196 84,-26 689,-215 719,-215zm-3 -158c26,-2 37,23 21,44 -16,22 -55,29 -81,36l-893 267c-84,25 -285,97 -358,106 -34,4 -78,-41 54,-80 59,-17 117,-35 176,-52 119,-36 239,-71 358,-107 120,-36 240,-71 359,-107 77,-24 299,-100 364,-107zm12 -162c58,56 -55,77 -91,88 -192,57 -1223,372 -1247,366 -32,-7 -16,-40 1,-53 25,-20 1316,-401 1337,-401zm1 -160c57,56 -56,76 -92,87 -59,17 -118,35 -176,52 -120,36 -239,72 -359,107 -79,24 -686,213 -712,207 -32,-7 -16,-40 1,-53 25,-19 1315,-401 1338,-400zm-7 -162c8,0 81,40 -72,84 -59,17 -117,35 -176,53 -171,50 -1027,318 -1074,318 -31,1 -36,-25 -17,-46 22,-26 220,-76 259,-88 159,-48 1050,-321 1080,-321zm8 -160c55,56 -57,77 -92,88 -192,56 -1225,372 -1248,366 -31,-8 -17,-40 2,-54 18,-13 64,-24 88,-31 206,-62 1207,-369 1250,-369zm-1357 279c-1,-56 88,-65 133,-79 182,-54 1207,-368 1225,-360 55,57 -64,78 -100,89l-1095 327c-38,11 -135,56 -163,23zm-1 -164c9,-54 101,-66 147,-79 59,-18 118,-35 176,-53l900 -269c25,-7 148,-60 151,-14 3,47 -110,67 -147,78l-1075 321c-37,11 -129,56 -152,16zm644 -1053c0,63 -4,124 -12,186 -8,55 -27,128 -25,179 148,17 683,-215 742,-186 45,22 37,235 27,281 -19,85 -141,97 -217,120 -85,25 -169,51 -254,76l-1532 457c-71,22 -189,89 -198,-30 -25,-324 33,-278 301,-359 83,-25 159,-44 239,-81l-73 -70c8,-27 27,-47 47,-67l75 -245c-50,27 -466,151 -527,159l-12 9 -325 96 -5 1967c93,29 28,20 118,-11 53,-18 105,-19 161,-16 1,-365 0,-729 0,-1094 0,-116 26,-115 126,-144l417 -125c49,-15 164,-72 181,-5 11,43 5,1176 4,1359 -1,115 -34,112 -131,140 -133,39 -298,80 -422,135 44,15 39,30 33,73 333,-80 692,-202 1023,-301l763 -228c12,-4 230,-84 194,-17 -28,52 -406,145 -483,168 -491,149 -1056,324 -1539,457 -21,70 -23,59 -59,113 126,-30 944,-292 986,-283 49,71 -154,102 -197,115 -253,75 -582,183 -821,243l12 71 7 -1 54 -11c139,13 886,-277 944,-253 38,66 -116,88 -164,102 -113,33 -611,174 -649,205 22,19 67,49 95,55 101,-24 675,-216 720,-203 32,66 -72,76 -120,90 -102,31 -490,137 -532,169l68 54c95,11 517,-168 586,-155 28,65 -41,69 -90,83 -84,26 -395,111 -435,134l44 72c106,-6 415,-138 482,-131l6 50c-32,22 -408,132 -463,143l5 87c42,18 392,-130 455,-119l2 53 -487 149 -36 91 10 12c78,-16 474,-154 509,-142 23,68 -46,70 -100,85 -134,38 -361,117 -476,139l-40 49 -21 25 6 24c60,33 544,-168 628,-164 40,66 -57,76 -104,90 -142,42 -392,124 -512,151l16 92c84,-21 565,-182 603,-169 23,71 -56,70 -113,88 -59,18 -118,34 -176,53 -106,33 -240,78 -346,101l5 48c32,65 117,14 180,-5 74,-22 148,-44 222,-66l892 -267c74,-22 148,-43 222,-66 34,-10 187,-70 208,-39 31,47 -140,83 -165,91 -74,22 -147,44 -221,66 -150,45 -300,90 -450,134 -171,51 -778,224 -898,277l-4 87c502,-139 1047,-312 1556,-463 23,-7 186,-72 184,-21 -1,51 -354,136 -408,153 -404,121 -955,299 -1335,395l-5 98c464,-121 1067,-317 1557,-462 26,-8 193,-74 191,-23 -2,51 -355,136 -409,152 -147,43 -295,88 -443,132 -297,89 -600,187 -899,266l-33 561 2065 -613c17,-196 7,-419 7,-618l0 -3745c0,-170 -20,-457 22,-610l-59 -1c-29,35 -407,133 -480,156 -133,40 -368,124 -495,143z"/>
   <path class="fil3" d="M5063 2023l29 -7c71,-5 147,13 198,-47 231,-270 435,-182 564,-200 52,-7 100,-75 143,-109 265,-218 726,-190 949,85 37,45 61,121 125,114 93,-10 122,-36 233,-23 314,38 413,334 357,391 -38,39 -197,17 -250,10l8 88c189,12 694,5 914,5 114,0 873,-10 917,10l120 -3c-41,-15 -59,-8 -101,-10 40,-14 108,-16 160,-34 42,-14 110,-55 140,-59 -62,-179 -200,-289 -380,-337 -228,-60 -315,-69 -406,-305 -497,-20 -904,23 -1416,-65 -111,-19 -311,-37 -266,-203 73,-272 975,-240 1229,-228 78,3 155,7 232,12 80,5 142,-5 209,38 42,-85 29,-357 4,-454l-329 -2c14,26 35,38 33,65 -65,15 -1093,9 -1119,-4 -5,-41 3,-58 25,-91 -233,27 -153,116 -311,215 -106,66 -279,95 -402,121 -288,61 -576,125 -863,186 -204,44 -672,122 -833,218 -127,75 -189,196 -161,345 31,166 120,202 248,278z"/>
   <path class="fil4" d="M3564 1313c-49,75 12,161 -106,188 -54,24 -28,-8 -83,41 -30,26 -44,27 -80,40l-2 16 36 11 265 -3 20 30c128,22 354,-33 487,-61 58,-13 175,-33 224,-57 31,-15 127,-94 153,-89 3,25 -17,21 -4,55l107 21 -51 19 44 19 -36 17 35 19 -45 15 9 26c-87,18 -122,-31 -231,24 -282,143 -551,130 -667,178l-8 34 -114 36c73,26 100,-20 177,52 44,41 135,15 133,85 -41,12 -311,7 -367,3l-37 389c39,17 57,37 96,45 68,-28 198,-55 274,-73 46,-11 99,-26 146,-32 65,-8 69,15 111,53l774 -164c24,-117 130,-194 239,-227 -128,-76 -217,-112 -248,-278 -28,-149 34,-270 161,-345 161,-96 629,-174 833,-218 287,-61 575,-125 863,-186 123,-26 296,-55 402,-121 158,-99 78,-188 311,-215 96,-99 123,-52 226,-57 67,-63 62,-101 174,-127 79,-18 172,-4 236,49 61,51 23,42 109,42 136,0 159,90 201,98 48,8 60,-9 107,29l8 -4 329 2c-374,-1027 -1814,-578 -2530,-224 -394,195 -773,435 -1174,612 -470,207 -994,310 -1507,233z"/>
   <path class="fil5" d="M5098 7304c81,7 206,60 292,80l-23 -66c-47,-18 -143,-38 -177,-67l4 -36c43,-35 319,-114 392,-140l-70 -41c-69,-21 -163,-75 -231,-108 -119,-55 -119,-50 -149,-189 -21,-96 -21,-192 10,-286 21,-64 82,-171 146,-194l87 -28c19,-182 -16,-1149 12,-1214 35,-15 449,122 517,143l398 119c57,17 91,11 104,73l124 -38 -7 -68c-228,-54 -639,-188 -897,-265 -46,-14 -273,-52 -237,-122 50,-27 963,297 1119,314l-6 -92c-196,-56 -393,-117 -589,-176 -98,-29 -196,-58 -294,-87 -47,-14 -277,-56 -227,-123 39,-10 974,284 1103,319l-12 -88c-87,-50 -696,-220 -870,-271 -42,-12 -271,-53 -221,-121 51,-13 924,282 1082,307l-11 -95c-232,-56 -592,-174 -844,-250 -67,-19 -253,-55 -233,-107 26,-34 85,-1 119,10l411 122c134,40 409,139 532,153l-5 -90c-234,-80 -583,-177 -838,-252 -47,-14 -249,-45 -216,-114 24,-25 908,265 1046,294l-13 -99c-181,-45 -370,-108 -550,-162 -91,-27 -182,-55 -273,-82 -47,-14 -245,-42 -210,-112 21,-21 664,185 774,217 50,15 203,78 244,57l-4 -82c-179,-54 -358,-108 -537,-161 -89,-26 -178,-53 -267,-80 -48,-14 -243,-41 -210,-112 48,-24 879,253 1006,284l-12 -93c-134,-56 -597,-183 -792,-241 -47,-14 -235,-40 -202,-111 20,-21 641,179 748,209 100,29 199,81 228,38l1 -43c-43,-53 -185,-77 -253,-98l-528 -158c-43,-13 -242,-44 -193,-112 38,-9 415,115 484,135 80,23 160,49 241,72 54,16 183,73 230,48l-4 -76c-168,-54 -341,-104 -511,-154 -85,-24 -169,-50 -254,-76 -42,-12 -235,-42 -186,-110 46,-10 820,240 943,271l-12 -94c-134,-56 -563,-172 -752,-229 -47,-14 -227,-41 -179,-109 19,-12 612,174 711,204 129,38 189,78 201,18l2 -28c-52,-57 -217,-86 -296,-110 -99,-30 -199,-60 -299,-89 -373,-110 -331,-56 -331,-259 0,-46 -9,-144 9,-182 43,-22 760,217 870,244 -6,-63 -37,-389 -56,-424l-13 30c-33,2 -463,-133 -531,-154 -74,-23 -489,-132 -516,-167l-20 1c-42,153 -22,440 -22,610l0 3745c0,199 10,422 -7,618z"/>
   <path class="fil6" d="M9160 7120c-161,98 -722,358 -932,461l-700 342c-120,59 -135,52 -260,8 -345,-121 -691,-240 -1037,-359 -342,-118 -693,-251 -1037,-357l-4 36c34,29 130,49 177,67 627,203 1261,432 1890,642 140,46 160,69 209,214 43,128 35,236 16,366l-10 53c-51,295 -118,215 -479,80l-1659 -618c-56,-20 -77,-21 -49,-79 -138,73 -147,84 8,138l986 343c219,76 439,152 659,229 108,37 218,79 327,113 142,45 195,2 315,-62l1447 -779c86,-46 210,-97 257,-184 48,-91 66,-266 55,-368 -13,-128 -56,-203 -135,-301l-44 15z"/>
   <path class="fil7" d="M6521 5582c39,-6 623,174 711,199 118,34 236,69 353,104 109,33 125,29 -124,140 -86,38 -249,-44 -338,-75 -113,-40 -227,-79 -340,-118 -113,-39 -225,-80 -338,-118 -26,-9 -144,-32 -85,-64 16,-8 152,-67 161,-68zm567 -466l-28 367 -4 110c-38,16 -253,18 -283,-4 2,-33 114,-91 147,-107l-8 -302 -46 13 -134 44 -177 63c9,49 43,235 20,265 -26,-29 -33,-202 -41,-253l-124 38 -727 258c289,86 581,192 867,288 290,98 579,194 869,291 75,25 132,59 210,22 63,-29 127,-65 190,-97l770 -390c125,-64 260,-142 389,-194 -49,-35 -122,-30 -174,-61 -38,-1 -312,-76 -349,-94l-83 -20 -138 -40 -116 -32 -70 -19 -182 -49 -276 -78 -39 -11c-31,42 -15,128 -15,181 0,60 2,121 -2,180l-5 107c-37,18 -254,20 -283,-3 3,-40 109,-89 146,-106l-30 -359 -10 -55c-80,-19 -58,-23 -137,5 -40,14 -87,32 -127,42z"/>
   <path class="fil8" d="M1750 4313c15,58 9,305 -29,351 -9,-53 -4,-139 -9,-199 -4,-58 -34,-137 38,-152zm0 -288c-7,25 -46,199 -56,206 -21,17 -54,-155 -55,-169 -10,-98 23,-144 39,-232 9,-49 -12,-181 -77,-133 -50,38 -22,124 -33,162 -8,27 -59,-118 -62,-144 -9,-81 27,-167 14,-238 -14,-74 -84,-114 -106,-31 -11,38 18,162 3,165 -47,10 -83,-103 -87,-138 -6,-58 9,-170 -49,-202 -73,-41 -54,97 -49,124 14,80 -27,55 -54,6 -41,-74 -40,-189 -83,-241 -50,-62 -116,-18 -112,52 3,47 77,148 66,158 -12,13 -113,-25 -160,11 -64,49 20,109 86,107 76,-3 141,-36 218,-6 17,7 146,91 120,107 -16,10 -112,-31 -158,10 -58,50 24,110 90,107 68,-4 138,-35 197,16 34,30 101,144 92,190 -7,43 -103,-8 -142,-6 -74,3 -80,82 -14,117 62,33 146,-4 202,37 39,28 73,137 64,179 -2,11 -62,-85 -93,-101 -64,-32 -103,51 -71,113 34,64 122,81 170,154 52,79 41,204 41,295l24 39 32 -9 7 89 0 573 1 58c-2,246 62,220 -399,-46 -299,-173 -742,-385 -1072,-493 -79,-26 -166,-45 -242,-74l-15 11 6 33c52,118 84,209 153,322 19,30 79,124 103,143 48,39 134,-20 185,0 10,39 -99,81 -71,133 24,44 223,190 284,223 86,47 89,-71 135,-61 39,84 -58,114 88,168 69,25 134,42 204,62 106,17 194,34 303,40 60,3 298,-11 329,1 24,55 8,766 9,889l-1 1176 82 6c16,-316 5,-917 5,-1263l0 -3152c0,-204 8,-426 -6,-628 -25,-9 -45,-23 -70,-20 -17,65 -5,456 -5,555 0,84 14,505 -10,550z"/>
   <path class="fil4" d="M8459 4122c60,-1 229,1 278,30 68,-30 114,-63 191,-90 69,-25 150,-49 222,-63 17,42 7,194 6,247 39,-9 257,24 322,27 55,2 327,21 350,-12 -4,-77 -74,-141 -87,-200 -117,-108 -167,-382 -169,-536 -3,-190 33,-446 65,-636l-1248 -3 65 25c17,59 5,507 5,606 0,202 1,403 0,605z"/>
   <path class="fil4" d="M478 3831c231,68 373,89 590,218 49,29 212,127 227,177 25,86 -2,285 22,378 28,-8 93,-204 131,-229 29,8 59,58 84,79 135,-63 133,134 145,217l14 29c0,-91 11,-216 -41,-295 -48,-73 -136,-90 -170,-154 -32,-62 7,-145 71,-113 31,16 91,112 93,101 9,-42 -25,-151 -64,-179 -56,-41 -140,-4 -202,-37 -66,-35 -60,-114 14,-117 39,-2 135,49 142,6 9,-46 -58,-160 -92,-190 -59,-51 -129,-20 -197,-16 -66,3 -148,-57 -90,-107 46,-41 142,0 158,-10 26,-16 -103,-100 -120,-107 -77,-30 -142,3 -218,6 -66,2 -150,-58 -86,-107 47,-36 148,2 160,-11 11,-10 -63,-111 -66,-158 -4,-70 62,-114 112,-52 43,52 42,167 83,241 27,49 68,74 54,-6 -5,-27 -24,-165 49,-124 58,32 43,144 49,202 4,35 40,148 87,138 15,-3 -14,-127 -3,-165 22,-83 92,-43 106,31 13,71 -23,157 -14,238 3,26 54,171 62,144 11,-38 -17,-124 33,-162 65,-48 86,84 77,133 -16,88 -49,134 -39,232 1,14 34,186 55,169 10,-7 49,-181 56,-206 12,-173 2,-382 2,-559 0,-87 -10,-503 7,-553 64,-45 446,-78 538,-129 -255,10 -511,6 -766,6 -256,0 -514,3 -770,-1 -101,55 -228,321 -258,435 -28,103 -37,204 -36,310 1,51 31,271 11,297z"/>
   <path class="fil9" d="M4824 6354c8,-131 16,-1270 -4,-1312 -27,-53 -185,17 -230,30 -126,38 -725,205 -758,243 -44,51 -28,240 -28,312 0,110 0,220 0,331 0,764 -62,718 247,625l773 -229z"/>
   <path class="fil10" d="M7919 6778c-62,28 -138,73 -198,108 -128,74 -102,50 -234,17 -78,25 -399,99 -440,139 -116,113 -140,297 -123,450l491 -131 162 -46c32,40 33,150 4,189 -25,-21 -19,-31 -53,-44l-50 75c-7,-55 -21,-112 -56,-153l-494 145c45,264 83,203 486,78l1661 -524c44,-13 109,-15 82,-75l-39 -42c-58,-53 -96,-184 -95,-261 3,-135 41,-158 87,-266l-1191 341z"/>
   <path class="fil11" d="M5683 5608c7,53 30,44 80,60 31,10 64,19 94,34 426,123 975,319 1421,465 195,64 292,54 367,268 31,88 75,483 -82,468 -57,-6 -1269,-453 -1396,-497l-17 -6 -79 -28c-23,5 -6,5 -14,-8 -41,-11 -226,-72 -251,-95l16 -34c-24,12 -93,39 -98,65 25,25 1533,524 1703,581l60 22c132,33 106,57 234,-17 60,-35 136,-80 198,-108l144 -85 832 -467c38,-27 88,-52 130,-76 77,-43 70,-40 89,-131 34,-169 10,-226 -37,-380 -36,-34 -50,-94 -99,-111 -129,52 -264,130 -389,194l-770 390c-63,32 -127,68 -190,97 -78,37 -135,3 -210,-22 -290,-97 -579,-193 -869,-291 -286,-96 -578,-202 -867,-288z"/>
   <path class="fil9" d="M2623 5094c52,6 119,16 156,54 -1,38 -19,15 7,44 55,58 13,40 4,84 -4,24 9,19 -15,41l9 39 14 4c124,-55 289,-96 422,-135 97,-28 130,-25 131,-140 1,-183 7,-1316 -4,-1359 -17,-67 -132,-10 -181,5l-417 125c-100,29 -126,28 -126,144 0,365 1,729 0,1094z"/>
   <path class="fil12" d="M5657 7103c256,137 537,259 799,387 133,65 268,127 401,193 196,96 255,38 454,-21 614,-180 1233,-373 1849,-542l44 -15 83 -29c-18,-25 -98,-56 -130,-70 27,60 -38,62 -82,75l-1661 524c-403,125 -441,186 -486,-78l-4 -35c-17,-153 7,-337 123,-450 41,-40 362,-114 440,-139l-60 -22c-52,37 -162,58 -227,77 -78,23 -146,61 -223,28 -375,-161 -902,-377 -1240,-540 -21,43 -61,73 -87,128 -25,53 -39,110 -45,168 -14,126 12,243 52,361z"/>
   <path class="fil10" d="M1992 6089c11,-138 248,-219 343,-276 17,-50 12,-219 7,-277 -27,-40 -32,-55 -7,-99 -23,-81 -69,-139 -9,-226l-14 -22 33 -23 -22 -31 21 -14 5 -1967c-53,-16 -330,-135 -360,-166 -24,98 -12,626 -12,766l0 1560c0,151 -19,664 15,775z"/>
   <path class="fil10" d="M6135 6118l162 62c-30,36 -52,29 -85,93 -22,44 -32,87 -45,133 127,44 1339,491 1396,497 157,15 113,-380 82,-468 -75,-214 -172,-204 -367,-268 -446,-146 -995,-342 -1421,-465 45,221 84,207 214,250 120,40 241,81 361,121l640 219c-245,-70 -489,-150 -733,-226 -111,-34 -259,-91 -367,-115 -68,-15 -70,73 -11,103 46,22 122,44 174,64z"/>
   <path class="fil10" d="M5390 7384c62,84 50,269 26,366 92,-7 693,272 854,301 14,-54 32,-117 69,-160 36,2 277,83 305,103 -3,7 -129,125 -135,227 65,40 383,129 479,161 160,53 333,114 494,158 19,-130 27,-238 -16,-366 -49,-145 -69,-168 -209,-214 -629,-210 -1263,-439 -1890,-642l23 66z"/>
   <path class="fil4" d="M1506 2302c31,17 60,38 88,59 39,28 45,52 75,78 49,19 180,-70 387,86 40,30 46,62 78,92 129,-3 247,7 305,143l206 -43c12,-120 4,-219 25,-347 18,-107 51,-209 69,-312 -36,-26 -29,-32 -16,-76 69,-233 144,-317 376,-381l24 -19 -1 -38c-51,26 -44,28 -100,15 -34,-8 -77,1 -102,-26 -24,-26 -6,-43 -47,-89 -29,-34 -31,-56 -31,-100 -63,33 -134,49 -204,87 -50,26 -128,80 -167,120 -97,100 -180,202 -275,301 -167,173 -487,315 -690,450z"/>
   <path class="fil13" d="M5092 2016c51,33 318,51 366,23l0 -11c147,19 216,33 345,-54 140,-95 137,-115 322,-117 42,15 34,136 41,178 56,13 141,9 204,17 55,8 117,22 169,42 53,21 246,120 282,154l155 1c34,-103 105,-152 215,-151 51,0 99,15 143,39 54,29 52,51 77,100 53,7 212,29 250,-10 56,-57 -43,-353 -357,-391 -111,-13 -140,13 -233,23 -64,7 -88,-69 -125,-114 -223,-275 -684,-303 -949,-85 -43,34 -91,102 -143,109 -129,18 -333,-70 -564,200 -51,60 -127,42 -198,47z"/>
   <path class="fil9" d="M4056 2994c-19,29 -38,132 -45,170 26,20 34,38 55,60 24,26 44,29 32,65 -29,5 -215,-49 -243,-66 -7,-31 8,-54 13,-88l-1 -65c-75,28 -545,176 -592,167 9,36 34,77 27,113 -36,6 -101,-59 -138,-78 -80,37 -156,56 -239,81 -268,81 -326,35 -301,359 9,119 127,52 198,30l1532 -457c85,-25 169,-51 254,-76 76,-23 198,-35 217,-120 10,-46 18,-259 -27,-281 -59,-29 -594,203 -742,186z"/>
   <path class="fil4" d="M8783 1592c-17,-78 -28,-138 -27,-219 1,-65 22,-173 15,-227 -67,-43 -129,-33 -209,-38 -77,-5 -154,-9 -232,-12 -254,-12 -1156,-44 -1229,228 -45,166 155,184 266,203 512,88 919,45 1416,65z"/>
   <path class="fil14" d="M1835 2940c14,202 6,424 6,628l0 3152c0,346 11,947 -5,1263l142 -29c-11,-170 -1,-687 -1,-895 0,-115 -15,-840 14,-891l1 -79c-34,-111 -15,-624 -15,-775l0 -1560c0,-140 -12,-668 12,-766l654 -161 13 -53c-59,-8 -336,65 -415,82 -108,23 -305,79 -406,84z"/>
   <path class="fil15" d="M5194 7215c344,106 695,239 1037,357 346,119 692,238 1037,359 125,44 140,51 260,-8l700 -342c210,-103 771,-363 932,-461 -616,169 -1235,362 -1849,542 -199,59 -258,117 -454,21 -133,-66 -268,-128 -401,-193 -262,-128 -543,-250 -799,-387l-71 -28c-73,26 -349,105 -392,140z"/>
   <path class="fil16" d="M5379 6229l493 -119 19 17 15 -40 195 63 34 -32c-52,-20 -128,-42 -174,-64 -59,-30 -57,-118 11,-103 108,24 256,81 367,115 244,76 488,156 733,226l-640 -219c-120,-40 -241,-81 -361,-121 -130,-43 -169,-29 -214,-250 -30,-15 -63,-24 -94,-34 -50,-16 -73,-7 -80,-60l727 -258c-13,-62 -47,-56 -104,-73l-398 -119c-68,-21 -482,-158 -517,-143 -28,65 7,1032 -12,1214z"/>
   <path class="fil17" d="M7111 2690l-13 1 -48 10 -135 60 -25 42c14,25 1,318 -3,365l0 316 0 106 2 100c79,13 156,28 236,37 52,6 222,8 252,26 16,-30 66,-72 92,-101 69,-78 46,-38 67,-138l0 -85c6,-429 -32,-293 -163,-499l157 172c51,-1 99,-42 135,-72l37 -36 7 -11 -25 -44 -102 -110 -89 -72c-91,-50 -126,-66 -234,-73 -23,56 -112,42 -148,6z"/>
   <path class="fil4" d="M8895 6226l395 115 1 35c-33,27 -135,46 -181,61 -46,108 -84,131 -87,266 -1,77 37,208 95,261 88,-57 214,-112 280,-194 76,-95 119,-190 164,-302 62,-157 211,-563 215,-716l-3 -24c-80,-18 -261,-22 -357,-34 -114,-13 -228,-30 -340,-55 47,154 71,211 37,380 -19,91 -12,88 -89,131 -42,24 -92,49 -130,76z"/>
   <path class="fil4" d="M7418 2377c39,91 -6,87 -67,105 -44,88 -40,62 -100,125l-1 15 14 31 871 186c42,-150 281,-126 295,-132 33,-15 130,-221 419,-182 100,13 39,-17 173,-107 67,-45 148,-73 228,-78 -44,-20 -803,-10 -917,-10 -220,0 -725,7 -914,-5l-1 52z"/>
   <path class="fil10" d="M5285 7976c-28,58 -7,59 49,79l1659 618c361,135 428,215 479,-80 -28,-41 -412,-155 -487,-183 -107,-38 -398,-156 -489,-170l-39 101c-34,-52 -37,-152 -64,-199 -61,7 -95,105 -129,138 -20,-75 1,-135 -6,-203 -42,-47 -724,-226 -849,-288 -50,62 -45,112 -124,187z"/>
   <path class="fil12" d="M1056 4546l13 13c27,0 311,344 350,392 57,71 112,142 167,214 45,59 122,184 168,227l0 -573c-23,-23 -33,-49 -39,-80l-24 -39 -14 -29 -145 -217c-25,-21 -55,-71 -84,-79 -38,25 -103,221 -131,229 -24,-93 3,-292 -22,-378 -15,-50 -178,-148 -227,-177 -217,-129 -359,-150 -590,-218l-134 -13c76,46 672,651 712,728z"/>
   <path class="fil18" d="M8135 2839c70,12 192,50 254,47l1248 3c3,-91 25,-421 -20,-487l-4 17c-96,-39 -125,-72 -243,-82l-120 3c-80,5 -161,33 -228,78 -134,90 -73,120 -173,107 -289,-39 -386,167 -419,182 -14,6 -253,-18 -295,132z"/>
   <path class="fil15" d="M2739 2058l149 54c1,30 -39,159 -48,200 -15,69 -33,147 -39,217 173,-94 427,-147 622,-108l37 -389 14 -140 43 0 114 -36 8 -34c4,-85 -3,-107 -25,-186l-20 -30 -265 3 -24 5c-12,51 -44,76 -99,78 -74,3 -76,-26 -83,-83l-24 -8c-232,64 -307,148 -376,381 -13,44 -20,50 16,76z"/>
   <path class="fil3" d="M8804 5467c52,31 125,26 174,61 49,17 63,77 99,111 112,25 226,42 340,55 96,12 277,16 357,34l3 24c45,-66 94,-585 101,-692 -91,-12 -468,-78 -528,-60l-46 61 -120 3 67 72c-15,47 -159,182 -209,205l-76 -55c-6,96 77,97 -162,181z"/>
   <path class="fil5" d="M6344 3523c57,12 393,109 426,132l-5 50c-51,4 -332,-99 -413,-115l11 88c94,58 336,87 405,138l1 51c-40,2 -319,-89 -378,-106l-11 14 3 82c56,12 355,95 385,120l1 50c-56,3 -297,-90 -378,-103l13 98c57,15 335,91 364,116l1 50c-39,2 -297,-84 -357,-99l11 89c63,50 291,75 346,120l0 51 -321 -90 -7 21 2 76c55,13 294,76 326,103l-1 47c-72,10 -255,-90 -310,-76l6 90c59,20 271,70 305,100l-1 47c-57,8 -228,-63 -297,-77l13 100c56,12 111,32 166,47 61,17 138,19 115,90 -58,8 -229,-81 -266,-61l5 88c50,14 237,61 265,88l-1 46c-54,6 -194,-53 -257,-65l13 94c162,70 271,41 241,132 -63,8 -162,-61 -219,-51l-3 36 1 54 188 49 134 -44c-18,-105 -3,-383 -3,-507 0,-102 12,-439 -7,-515 12,-160 -7,-321 33,-481l-2 -100c-78,-19 -509,-168 -547,-151l4 84z"/>
   <path class="fil19" d="M761 2789c256,4 514,1 770,1 255,0 511,4 766,-6 47,2 96,-14 142,-24 -58,-136 -176,-146 -305,-143 -32,-30 -38,-62 -78,-92 -207,-156 -338,-67 -387,-86 -30,-26 -36,-50 -75,-78 -28,-21 -57,-42 -88,-59 -139,70 -669,381 -745,487z"/>
   <path class="fil5" d="M7588 3687l1 93c-24,36 -7,0 -41,20l4 85 31 10c18,59 6,523 6,622 0,199 -10,423 1,618l276 78 1 -1730 -279 204z"/>
   <path class="fil8" d="M2292 6577c28,-58 64,-112 133,-66l-41 21 23 58 14 33 -39 -22 17 37 -40 -23 2 33c-28,-15 -58,-42 -69,-71zm30 -485c8,39 -11,252 -24,292 -14,-6 -131,-205 -136,-232l160 -60zm13 -279c-95,57 -332,138 -343,276l-1 79c4,128 207,330 285,427 4,72 -31,197 -21,259l40 14c40,24 91,38 137,44 63,9 98,13 123,-44 24,-374 0,-727 -16,-1099l-204 44z"/>
   <path class="fil10" d="M1978 7954c44,36 125,40 152,91 22,-47 67,-443 78,-528 11,-81 56,-491 79,-533l8 -116 -40 -14c-10,-62 25,-187 21,-259 -78,-97 -281,-299 -285,-427 -29,51 -14,776 -14,891 0,208 -10,725 1,895z"/>
   <path class="fil20" d="M2583 6888c-44,105 -180,201 -298,149l2 -53c-23,42 -68,452 -79,533 -11,85 -56,481 -78,528 6,48 -17,181 -27,233 84,11 101,19 191,10l49 -164 280 -946 24 -81 17 -56 45 -14 142 -124 0 -42c-101,23 -160,40 -268,27z"/>
   <path class="fil21" d="M5379 6229l-87 28 309 133 136 56c338,163 865,379 1240,540 77,33 145,-5 223,-28 65,-19 175,-40 227,-77 -170,-57 -1678,-556 -1703,-581 5,-26 74,-53 98,-65 38,-40 42,-66 69,-108l-19 -17 -493 119z"/>
   <path class="fil22" d="M2851 6903l-142 124 -5 35 19 133 4 42 7 63 9 93 6 73 53 525c4,52 23,342 36,363l1 -70 167 -14 27 -353 33 -561 3 -65 5 -98 3 -64 4 -87c1,-37 -4,-91 10,-125l-5 -48 2 -27c-68,34 -161,68 -237,61z"/>
   <path class="fil4" d="M1755 6801c-1,-123 15,-834 -9,-889 -31,-12 -269,2 -329,-1 -109,-6 -197,-23 -303,-40 59,203 89,404 212,580 99,140 264,295 429,350z"/>
   <path class="fil9" d="M7709 2983c42,3 302,73 325,93 -41,32 -159,45 -169,101 98,172 166,146 2,306l-1 1730 182 49c12,-625 1,-1326 1,-1965 0,-128 -20,-208 38,-247l-403 -111 25 44z"/>
   <path class="fil14" d="M7582 2829l624 156c42,42 29,75 29,134l-1 2194 138 40 5 -2413c-106,-5 -327,-67 -442,-92 -97,-22 -360,-92 -442,-91l89 72z"/>
   <path class="fil23" d="M2801 2529c-13,50 -27,105 -10,155l16 44 26 54c63,51 72,83 165,96 92,12 175,-30 225,-24l-10 36 -75 245c49,29 56,55 120,53 44,-33 94,-99 127,-145 33,-47 77,-133 108,-168 21,-72 54,-120 65,-200 18,-123 -42,-167 -39,-209 -39,-8 -57,-28 -96,-45 -195,-39 -449,14 -622,108z"/>
   <path class="fil3" d="M9116 4694c123,-11 198,-27 327,-18l18 26 10 24c148,41 263,43 414,38 0,-104 -3,-421 -57,-503 -23,33 -295,14 -350,12 -65,-3 -283,-36 -322,-27l-5 79 -211 109 197 83 -21 177z"/>
   <path class="fil24" d="M42 4837c76,29 163,48 242,74 330,108 773,320 1072,493 461,266 397,292 399,46 -49,-27 -88,-83 -131,-119 -43,-36 -86,-73 -130,-107 -44,-33 -274,-185 -286,-199l-57 -25 -18 -13c-21,-2 -17,-5 -30,-23 -24,9 -13,9 -38,-11 -32,2 -73,-21 -93,-44 -52,5 -75,-30 -122,-23 -26,35 -42,121 -73,145 -93,-243 -26,-182 -260,-222 -119,-4 -366,-14 -475,28z"/>
   <path class="fil8" d="M3020 6170c42,28 84,47 57,103 7,51 -13,103 -15,155l-9 18 -8 -15 -31 -167 -29 -77 -10 -56c19,3 38,19 45,39zm-169 691l0 42c76,7 169,-27 237,-61 32,-14 30,-11 30,-46l-16 -92 -12 -77 -6 -24 -32 -34 -48 17 25 -47 -40 13c9,-31 27,-11 24,-46l-42 4 24 -36 -38 11c10,-41 105,-81 148,93l40 -49c13,-33 31,-71 57,-94l36 -91 30 -83 -5 -87 -25 -62 -44 -72 -61 -62 -68 -54c-27,-12 -53,-31 -68,-56 -28,-6 -73,-36 -95,-55l-131 -54 -54 11c93,303 131,771 134,1091z"/>
   <path class="fil6" d="M8459 5261l-4 112c37,18 311,93 349,94 239,-84 156,-85 162,-181l76 55c50,-23 194,-158 209,-205l-67 -72 120 -3 46 -61c18,-50 43,-98 62,-148 15,-44 28,-116 49,-150l-18 -26c-63,42 -196,87 -274,128 -201,105 -298,173 -483,295 -67,44 -163,129 -227,162z"/>
   <path class="fil16" d="M6310 3441l-47 -396c-110,-27 -827,-266 -870,-244 -18,38 -9,136 -9,182 0,203 -42,149 331,259 100,29 200,59 299,89 79,24 244,53 296,110z"/>
   <path class="fil21" d="M7300 3956l95 13c-43,-2 -121,13 -149,4 7,-34 113,-65 126,-64 -9,25 -46,27 -72,47zm-444 215l43 13c103,26 135,25 241,27l38 -12c17,-49 5,-150 28,-184 27,25 22,77 25,112 8,87 -1,53 59,86 94,4 145,18 245,6l23 -11 -6 -323 -4 -85c-19,-35 -5,-35 -33,-65 -28,46 -14,92 -71,124 -30,-17 -56,-73 -67,-106 -30,-18 -200,-20 -252,-26 -80,-9 -157,-24 -236,-37 -40,160 -21,321 -33,481z"/>
   <path class="fil25" d="M3519 2466c-3,42 57,86 39,209 -11,80 -44,128 -65,200 75,-11 130,-29 199,-58 36,-15 145,-73 172,-74 15,45 4,263 3,327l1 65c51,39 79,42 143,29 7,-38 26,-141 45,-170 -2,-51 17,-124 25,-179 8,-62 12,-123 12,-186l-15 -147 -28 -68c-42,-38 -46,-61 -111,-53 -47,6 -100,21 -146,32 -76,18 -206,45 -274,73z"/>
   <path class="fil9" d="M8103 3053l15 2228 116 32 1 -2194c0,-59 13,-92 -29,-134l7 15 -110 53z"/>
   <path class="fil17" d="M2555 6868l6 15 22 5c108,13 167,-4 268,-27 -3,-320 -41,-788 -134,-1091l-7 1c-72,17 -96,13 -168,0l-3 -2c16,372 40,725 16,1099z"/>
   <path class="fil7" d="M2842 1344c0,44 2,66 31,100 41,46 23,63 47,89 25,27 68,18 102,26 56,13 49,11 100,-15l0 -19 -40 -62c-34,-9 -62,7 -85,-33 -35,-58 7,-66 39,-86l1 -41c-20,-65 -4,-68 51,-100 77,-44 173,-67 261,-49 67,14 75,19 82,85l13 38 34 10c21,42 15,69 -31,82 0,60 -22,96 -23,128l34 4c118,-27 57,-113 106,-188 -11,-155 -30,-110 -53,-176 -20,-54 29,-90 -47,-158 -42,-37 -65,-92 -117,-103 -58,-12 -134,-31 -179,-17 -32,10 -45,23 -70,41 -42,29 -47,11 -93,17 -85,12 -73,77 -103,117 -17,22 -45,23 -55,55 -13,40 10,52 -5,88 -53,130 -1,72 0,167z"/>
   <path class="fil21" d="M8458 4931l4 137c68,-51 121,-111 197,-165 53,-37 172,-116 231,-128l58 89 39 -130 129 -40 21 -177 -197 -83 211 -109 5 -79c1,-53 11,-205 -6,-247 -110,153 -246,302 -360,458 -58,79 -115,156 -170,237 -42,60 -119,192 -162,237z"/>
   <path class="fil2" d="M2623 7178l-280 946 459 -133 -53 -525c-52,-10 -80,22 -124,19l4 -59 114 -33 -9 -93 -109 24 4 -58 98 -29 -4 -42 -20 -48c-34,7 -51,11 -80,31z"/>
   <path class="fil11" d="M6521 5582c-9,1 -145,60 -161,68 -59,32 59,55 85,64 113,38 225,79 338,118 113,39 227,78 340,118 89,31 252,113 338,75 249,-111 233,-107 124,-140 -117,-35 -235,-70 -353,-104 -88,-25 -672,-205 -711,-199z"/>
   <path class="fil12" d="M5516 7034c-66,-126 -100,-207 -75,-355 12,-72 83,-271 160,-289l-309 -133c-64,23 -125,130 -146,194 -31,94 -31,190 -10,286 30,139 30,134 149,189 68,33 162,87 231,108z"/>
   <path class="fil4" d="M6216 2428c140,22 292,62 432,92 100,21 352,88 437,87l20 -4c-112,-93 -64,-63 -121,-185 -7,-76 -27,-80 -8,-169l-155 -1 -630 0 25 180z"/>
   <path class="fil7" d="M453 4551l63 -32 63 -89 61 30c32,12 164,96 161,127 -47,19 -90,-12 -140,-3 -48,9 -72,66 -33,100 97,85 161,-47 203,-70 28,8 153,146 157,174 -44,-8 -71,-79 -119,-98 -71,-28 -108,61 -58,117 59,66 134,18 189,20 40,2 84,103 103,137 13,18 9,21 30,23 -15,-43 -100,-165 -99,-190 0,-11 30,-83 35,-107 15,-61 4,-75 0,-131l-13 -13c-68,-45 -116,-23 -105,61 7,55 48,112 60,165 -21,-12 -63,-77 -85,-98 -25,-27 -86,-74 -84,-110 3,-63 24,-116 -21,-175 -35,-46 -98,-77 -113,6l2 30c18,39 62,85 89,118l-128 -99 -26 -13 0 -59c-3,-73 -40,-204 -140,-162 -28,44 -10,73 12,113l16 17c29,15 76,38 78,71l-81 -31 -65 -19 -5 -55c-14,-55 -19,-94 -73,-120 -74,-17 -93,32 -56,84 22,29 90,54 86,78 -69,30 -109,-18 -133,-73 -99,-215 -239,-80 -147,11 39,39 124,46 137,69 -43,32 -144,-22 -168,57 -20,71 75,93 125,65 60,-34 54,-104 124,-106 33,-1 155,17 172,44 -40,27 -118,-18 -155,43 -40,65 33,87 81,93z"/>
   <path class="fil26" d="M7352 5069l10 55c5,-2 153,-2 163,-1 11,43 8,312 -1,362l10 0c4,-59 2,-120 2,-180 0,-53 -16,-139 15,-181 -32,-36 -17,-164 -17,-217 0,-77 1,-153 1,-229 0,-153 0,-306 0,-459 -100,12 -151,-2 -245,-6l-16 9 78 847z"/>
   <path class="fil26" d="M6913 5114c78,23 101,13 176,-3 8,-149 21,-301 32,-450 5,-74 10,-148 15,-221 4,-54 29,-189 4,-229 -106,-2 -138,-1 -241,-27l14 930z"/>
   <path class="fil12" d="M8737 4152c-32,38 -111,80 -129,123 -22,50 -10,165 -32,220 -39,-16 -55,-87 -93,-112l-22 19 -3 529c43,-45 120,-177 162,-237 55,-81 112,-158 170,-237 114,-156 250,-305 360,-458 -72,14 -153,38 -222,63 -77,27 -123,60 -191,90z"/>
   <path class="fil8" d="M8377 2940l-5 2413 83 20c5,-410 -6,-820 -5,-1229 1,-143 14,-1168 -9,-1216 -24,-11 -38,2 -64,12z"/>
   <path class="fil27" d="M6279 2988c30,40 1,-21 48,30l12 -86c48,26 67,124 91,167l383 113 -4 -80 -56 -41c2,-71 64,-184 90,-252 -44,8 -529,-143 -601,-171l37 320z"/>
   <path class="fil18" d="M5063 2023c-109,33 -215,110 -239,227l24 -8c162,-49 360,-74 518,4l28 0 774 0 -13 -110c-71,-13 -144,-27 -216,-20 -109,10 -180,110 -353,17 -54,-29 -85,-67 -128,-94 -48,28 -315,10 -366,-23l-29 7z"/>
   <path class="fil28" d="M7140 4211c25,40 0,175 -4,229 -5,73 -10,147 -15,221 -11,149 -24,301 -32,450l-1 5c40,-10 87,-28 127,-42 79,-28 57,-24 137,-5l-78 -847 16 -9c-60,-33 -51,1 -59,-86 -3,-35 2,-87 -25,-112 -23,34 -11,135 -28,184l-38 12z"/>
   <path class="fil26" d="M7665 3030c-31,41 -87,62 -106,88 27,63 153,168 185,230 -8,23 -130,151 -154,170 -12,20 -28,44 -52,50l-2 -54c-21,100 2,60 -67,138 -26,29 -76,71 -92,101 11,33 37,89 67,106 57,-32 43,-78 71,-124l73 -48 279 -204c164,-160 96,-134 -2,-306l-163 -183 -37 36z"/>
   <path class="fil2" d="M3493 2875c-31,35 -75,121 -108,168 -33,46 -83,112 -127,145l17 49c47,9 517,-139 592,-167 1,-64 12,-282 -3,-327 -27,1 -136,59 -172,74 -69,29 -124,47 -199,58z"/>
   <path class="fil21" d="M8063 6693c45,15 532,-144 616,-169 102,-30 205,-60 308,-90 78,-23 237,-60 303,-93l-395 -115 -832 467z"/>
   <path class="fil21" d="M387 4186c54,26 59,65 73,120l57 17c-22,-40 -40,-69 -12,-113 100,-42 137,89 140,162l63 23c15,-83 78,-52 113,-6 45,59 24,112 21,175 -2,36 59,83 84,110 22,21 64,86 85,98 -12,-53 -53,-110 -60,-165 -11,-84 37,-106 105,-61 -40,-77 -636,-682 -712,-728l43 368z"/>
   <path class="fil15" d="M9116 4694l-129 40 -39 130 -58 -89c-59,12 -178,91 -231,128 -76,54 -129,114 -197,165l-3 193c64,-33 160,-118 227,-162 185,-122 282,-190 483,-295 78,-41 211,-86 274,-128 -129,-9 -204,7 -327,18z"/>
   <path class="fil29" d="M5147 2330c27,35 442,144 516,167 68,21 498,156 531,154l13 -30 -14 -131 -871 -212c-52,32 -115,44 -175,52z"/>
   <path class="fil26" d="M3614 1636c22,79 29,101 25,186 116,-48 385,-35 667,-178 109,-55 144,-6 231,-24l-9 -26 45 -15 -35 -19 36 -17 -44 -19 51 -19 -107 -21c-13,-34 7,-30 4,-55 -26,-5 -122,74 -153,89 -49,24 -166,44 -224,57 -133,28 -359,83 -487,61z"/>
   <path class="fil26" d="M2645 2717l11 57 -13 53c-13,42 -57,104 -57,143l38 -25 -15 71 41 -46 -9 63 43 -55 -10 80 12 -9c13,-29 39,-97 62,-113 21,18 22,37 47,42 7,-46 -26,-131 -33,-183l4 -55c4,-33 -2,-37 25,-56 -17,-50 -3,-105 10,-155 6,-70 24,-148 39,-217 9,-41 49,-170 48,-200l-149 -54c-18,103 -51,205 -69,312 -21,128 -13,227 -25,347z"/>
   <path class="fil26" d="M2589 5553c23,-17 70,-27 98,-22 4,49 -77,59 -98,22zm-54 -142c69,-10 -13,69 0,0zm181 -12c-14,20 0,17 -28,11 -4,-29 9,-37 28,-11zm-226 -7c13,-33 49,-36 77,-18l-77 18zm-155 45c-25,44 -20,59 7,99 49,16 33,6 74,6 48,84 48,77 127,126 82,11 89,-8 143,-8 10,55 -106,35 -140,31l-4 80c72,13 96,17 168,0l-12 -71c-3,-47 -9,-50 32,-75 36,-54 38,-43 59,-113l5 -55 -10 -101 -9 -39c-125,18 -104,-20 -169,5 -47,18 -101,-20 -149,-20 -46,58 -28,137 -122,135z"/>
   <path class="fil9" d="M2831 5433l-37 24 -5 55c483,-133 1048,-308 1539,-457 77,-23 455,-116 483,-168 36,-67 -182,13 -194,17l-763 228c-331,99 -690,221 -1023,301z"/>
   <path class="fil4" d="M9350 5000c60,-18 437,48 528,60l7 -296c-151,5 -266,3 -414,-38l-10 -24c-21,34 -34,106 -49,150 -19,50 -44,98 -62,148z"/>
   <path class="fil30" d="M8048 5262l70 19 -15 -2228 -16 -3c-58,39 -38,119 -38,247 0,639 11,1340 -1,1965z"/>
   <path class="fil21" d="M1133 4987l18 13c-9,-68 -47,-165 28,-210 63,-8 89,43 85,100 -4,56 -32,89 -56,135 12,14 242,166 286,199 44,34 87,71 130,107 43,36 82,92 131,119l-1 -58c-46,-43 -123,-168 -168,-227 -55,-72 -110,-143 -167,-214 -39,-48 -323,-392 -350,-392 4,56 15,70 0,131 -5,24 -35,96 -35,107 -1,25 84,147 99,190z"/>
   <path class="fil31" d="M4078 2482l15 147c127,-19 362,-103 495,-143 73,-23 451,-121 480,-156 -52,-6 -138,-18 -179,-52 -66,7 -789,187 -811,204z"/>
   <path class="fil21" d="M516 4519l-63 32 64 258c234,40 167,-21 260,222 31,-24 47,-110 73,-145 47,-7 70,28 122,23 50,-10 71,-1 93,44 25,20 14,20 38,11 -19,-34 -63,-135 -103,-137 -55,-2 -130,46 -189,-20 -50,-56 -13,-145 58,-117 48,19 75,90 119,98 -4,-28 -129,-166 -157,-174 -42,23 -106,155 -203,70 -39,-34 -15,-91 33,-100 50,-9 93,22 140,3 3,-31 -129,-115 -161,-127l-124 59z"/>
   <path class="fil31" d="M1989 2988c30,31 307,150 360,166l325 -96 10 -80 -43 55 9 -63 -41 46 15 -71 -38 25c0,-39 44,-101 57,-143l-654 161z"/>
   <path class="fil15" d="M5458 2039c43,27 74,65 128,94 173,93 244,-7 353,-17 72,-7 145,7 216,20l-30 -279c-185,2 -182,22 -322,117 -129,87 -198,73 -345,54l0 11z"/>
   <path class="fil26" d="M3235 1449c27,-19 94,-22 126,-13 2,62 -105,70 -126,13zm-13 -103c-27,15 -30,10 -28,-19 29,-3 21,-10 28,19zm151 -38c-5,24 3,15 -20,20 -18,-26 -7,-37 20,-20zm-222 7c9,-29 41,-43 66,-28l-66 28zm171 -42c20,-25 68,-30 80,1l-80 -1zm-285 30l-1 41c-32,20 -74,28 -39,86 23,40 51,24 85,33l40 62c76,49 73,61 173,57 36,-13 50,-14 80,-40 55,-49 29,-17 83,-41l-34 -4c1,-32 23,-68 23,-128l-3 -92 -13 -38c-200,-30 -219,-26 -394,64z"/>
   <path class="fil9" d="M3077 7129l-3 64c380,-96 931,-274 1335,-395 54,-17 407,-102 408,-153 2,-51 -161,14 -184,21 -509,151 -1054,324 -1556,463z"/>
   <path class="fil9" d="M3091 6917c-14,34 -9,88 -10,125 120,-53 727,-226 898,-277 150,-44 300,-89 450,-134 74,-22 147,-44 221,-66 25,-8 196,-44 165,-91 -21,-31 -174,29 -208,39 -74,23 -148,44 -222,66l-892 267c-74,22 -148,44 -222,66 -63,19 -148,70 -180,5z"/>
   <path class="fil28" d="M6340 3439c38,-17 469,132 547,151l0 -106c-151,-53 -527,-350 -592,-363 8,58 26,282 45,318z"/>
   <path class="fil32" d="M2344 5121l-21 14 22 31 -33 23 14 22c-60,87 -14,145 9,226 94,2 76,-77 122,-135 48,0 102,38 149,20 65,-25 44,13 169,-5 24,-22 11,-17 15,-41 9,-44 51,-26 -4,-84 -26,-29 -8,-6 -7,-44 -37,-38 -104,-48 -156,-54 -56,-3 -108,-2 -161,16 -90,31 -25,40 -118,11z"/>
   <path class="fil18" d="M7385 660c179,-1 355,0 534,8 162,8 362,7 519,26 -47,-38 -59,-21 -107,-29 -42,-8 -65,-98 -201,-98 -86,0 -48,9 -109,-42 -64,-53 -157,-67 -236,-49 -112,26 -107,64 -174,127 -103,5 -130,-42 -226,57z"/>
   <path class="fil9" d="M3069 7291l-3 65c299,-79 602,-177 899,-266 148,-44 296,-89 443,-132 54,-16 407,-101 409,-152 2,-51 -165,15 -191,23 -490,145 -1093,341 -1557,462z"/>
   <path class="fil33" d="M5516 7034l70 41 71 28c-40,-118 -66,-235 -52,-361 6,-58 20,-115 45,-168 26,-55 66,-85 87,-128l-136 -56c-77,18 -148,217 -160,289 -25,148 9,229 75,355z"/>
   <path class="fil13" d="M8446 690l-8 4c-157,-19 -357,-18 -519,-26 -179,-8 -355,-9 -534,-8 -22,33 -30,50 -25,91 26,13 1054,19 1119,4 2,-27 -19,-39 -33,-65z"/>
   <path class="fil26" d="M7098 2483c31,-8 81,-13 107,2 -17,38 -86,41 -107,-2zm-29 -113c28,1 26,6 11,25 -23,-12 -16,-4 -11,-25zm164 13c-11,19 -4,23 -28,6 20,-27 14,-14 28,-6zm-189 -41c20,-17 47,-24 64,0l-64 0zm-60 76c57,122 9,92 121,185l-20 4 29 14c14,-23 26,-8 60,-7 28,1 49,-6 77,-7 60,-63 56,-37 100,-125 61,-18 106,-14 67,-105 -95,8 -64,-2 -142,-28l-6 8 -72 -13 36 -24c-30,-10 -65,-49 -90,-51l6 41c-52,-1 -73,-46 -109,-58 -65,67 -25,115 -57,166z"/>
   <path class="fil26" d="M6279 2988c6,57 -3,77 16,133 65,13 441,310 592,363l0 -316 -78 -36 4 80 4 71c-36,2 -359,-153 -387,-184 -24,-43 -43,-141 -91,-167l-12 86c-47,-51 -18,10 -48,-30z"/>
   <path class="fil19" d="M6191 2248l630 0c-36,-34 -229,-133 -282,-154 -52,-20 -114,-34 -169,-42 -63,-8 -148,-4 -204,-17l25 213z"/>
   <path class="fil34" d="M6155 2136l13 110c3,29 28,158 8,171 23,14 17,48 17,73l14 131c19,35 50,361 56,424l47 396 -2 28c17,32 16,79 19,116l12 94 8 69 4 76 19 113 -1 43c15,32 15,69 18,105l12 93 8 69 4 82 15 82 13 99 8 72 5 90 15 72 11 95 9 85 12 88 7 67 6 92 15 73 7 68c8,51 15,224 41,253 23,-30 -11,-216 -20,-265l-11 -112 -1 -54c-18,-33 -16,-79 -19,-117l-13 -94 -7 -69 -5 -88 -15 -76 -13 -100 -7 -70 -6 -90 -15 -74 -2 -76 -18 -102 -11 -89 -8 -67 -13 -98 -8 -67 -3 -82 -17 -97 -11 -88 -8 -67 -4 -84c-19,-36 -37,-260 -45,-318 -19,-56 -10,-76 -16,-133l-37 -320 -4 -83c-14,-29 -19,-58 -7,-87l-13 -26 -2 -44 -25 -180 -25 -213c-7,-42 1,-163 -41,-178l30 279z"/>
   <path class="fil9" d="M4799 3727c-30,0 -921,273 -1080,321 -39,12 -237,62 -259,88 -19,21 -14,47 17,46 47,0 903,-268 1074,-318 59,-18 117,-36 176,-53 153,-44 80,-84 72,-84z"/>
   <path class="fil9" d="M4795 4530c0,0 -1305,378 -1332,406 -22,22 -13,47 18,47 31,1 912,-268 1069,-316 58,-17 117,-35 176,-52 25,-7 67,-16 84,-34 21,-22 9,-50 -15,-51z"/>
   <path class="fil9" d="M4807 3567c-43,0 -1044,307 -1250,369 -24,7 -70,18 -88,31 -19,14 -33,46 -2,54 23,6 1056,-310 1248,-366 35,-11 147,-32 92,-88z"/>
   <path class="fil21" d="M6270 8051l-12 26c7,68 -14,128 6,203 34,-33 68,-131 129,-138 27,47 30,147 64,199l39 -101 13 -19c6,-102 132,-220 135,-227 -28,-20 -269,-101 -305,-103 -37,43 -55,106 -69,160z"/>
   <path class="fil9" d="M4796 4369c-30,0 -635,189 -719,215 -51,15 -590,163 -618,196 -18,21 -14,46 17,45l716 -211c119,-36 239,-72 358,-107 39,-12 237,-63 260,-87 20,-21 10,-50 -14,-51z"/>
   <path class="fil9" d="M4805 4049c-21,0 -1312,381 -1337,401 -17,13 -33,46 -1,53 24,6 1055,-309 1247,-366 36,-11 149,-32 91,-88z"/>
   <path class="fil9" d="M3450 3846c28,33 125,-12 163,-23l1095 -327c36,-11 155,-32 100,-89 -18,-8 -1043,306 -1225,360 -45,14 -134,23 -133,79z"/>
   <path class="fil9" d="M4806 3889c-23,-1 -1313,381 -1338,400 -17,13 -33,46 -1,53 26,6 633,-183 712,-207 120,-35 239,-71 359,-107 58,-17 117,-35 176,-52 36,-11 149,-31 92,-87z"/>
   <path class="fil9" d="M4793 4211c-65,7 -287,83 -364,107 -119,36 -239,71 -359,107 -119,36 -239,71 -358,107 -59,17 -117,35 -176,52 -132,39 -88,84 -54,80 73,-9 274,-81 358,-106l893 -267c26,-7 65,-14 81,-36 16,-21 5,-46 -21,-44z"/>
   <path class="fil9" d="M3449 3682c23,40 115,-5 152,-16l1075 -321c37,-11 150,-31 147,-78 -3,-46 -126,7 -151,14l-900 269c-58,18 -117,35 -176,53 -46,13 -138,25 -147,79z"/>
   <path class="fil9" d="M4812 4750c13,-10 18,-51 -14,-55 -22,-4 -1315,381 -1335,402 -18,17 -24,47 8,50l1341 -397z"/>
   <path class="fil8" d="M6976 2249c-19,89 1,93 8,169 32,-51 -8,-99 57,-166 36,12 57,57 109,58l-6 -41c25,2 60,41 90,51l42 29c78,26 47,36 142,28l1 -52 -8 -88c-25,-49 -23,-71 -77,-100 -44,-24 -92,-39 -143,-39 -110,-1 -181,48 -215,151z"/>
   <path class="fil16" d="M6527 5244l-15 -73c-156,-17 -1069,-341 -1119,-314 -36,70 191,108 237,122 258,77 669,211 897,265z"/>
   <path class="fil16" d="M6506 5079l-7 -67c-129,-35 -1064,-329 -1103,-319 -50,67 180,109 227,123 98,29 196,58 294,87 196,59 393,120 589,176z"/>
   <path class="fil35" d="M7259 2684c108,7 143,23 234,73 82,-1 345,69 442,91 115,25 336,87 442,92 26,-10 40,-23 64,-12 23,48 10,1073 9,1216 -1,409 10,819 5,1229l4 -112 3 -193 -4 -137 3 -529 -2 -280c1,-202 0,-403 0,-605 0,-99 12,-547 -5,-606l-65 -25c-62,3 -184,-35 -254,-47l-871 -186 -5 31z"/>
   <path class="fil4" d="M6176 2417c20,-13 -5,-142 -8,-171l-774 0c57,27 304,71 382,87 133,27 267,60 400,84z"/>
   <path class="fil16" d="M6487 4924l-9 -85c-158,-25 -1031,-320 -1082,-307 -50,68 179,109 221,121 174,51 783,221 870,271z"/>
   <path class="fil9" d="M2730 5625c-41,25 -35,28 -32,75 239,-60 568,-168 821,-243 43,-13 246,-44 197,-115 -42,-9 -860,253 -986,283z"/>
   <path class="fil16" d="M6467 4744l-15 -72c-123,-14 -398,-113 -532,-153l-411 -122c-34,-11 -93,-44 -119,-10 -20,52 166,88 233,107 252,76 612,194 844,250z"/>
   <path class="fil16" d="M6407 4247l-8 -69c-127,-31 -958,-308 -1006,-284 -33,71 162,98 210,112 89,27 178,54 267,80 179,53 358,107 537,161z"/>
   <path class="fil31" d="M6238 2585c11,-19 616,184 677,176l135 -60 -819 -203c-12,29 -7,58 7,87z"/>
   <path class="fil16" d="M6426 4411l-15 -82c-41,21 -194,-42 -244,-57 -110,-32 -753,-238 -774,-217 -35,70 163,98 210,112 91,27 182,55 273,82 180,54 369,117 550,162z"/>
   <path class="fil16" d="M6447 4582l-8 -72c-138,-29 -1022,-319 -1046,-294 -33,69 169,100 216,114 255,75 604,172 838,252z"/>
   <path class="fil16" d="M6387 4085c-3,-36 -3,-73 -18,-105 -29,43 -128,-9 -228,-38 -107,-30 -728,-230 -748,-209 -33,71 155,97 202,111 195,58 658,185 792,241z"/>
   <path class="fil16" d="M6370 3937l-19 -113c-47,25 -176,-32 -230,-48 -81,-23 -161,-49 -241,-72 -69,-20 -446,-144 -484,-135 -49,68 150,99 193,112l528 158c68,21 210,45 253,98z"/>
   <path class="fil16" d="M6347 3748l-8 -69c-123,-31 -897,-281 -943,-271 -49,68 144,98 186,110 85,26 169,52 254,76 170,50 343,100 511,154z"/>
   <path class="fil29" d="M6238 2585l4 83c72,28 557,179 601,171l47 -36 25 -42c-61,8 -666,-195 -677,-176z"/>
   <path class="fil28" d="M7535 4219c0,153 0,306 0,459 0,76 -1,152 -1,229 0,53 -15,181 17,217l39 11c-11,-195 -1,-419 -1,-618 0,-99 12,-563 -6,-622l-31 -10 6 323 -23 11z"/>
   <path class="fil16" d="M6327 3585c-3,-37 -2,-84 -19,-116 -12,60 -72,20 -201,-18 -99,-30 -692,-216 -711,-204 -48,68 132,95 179,109 189,57 618,173 752,229z"/>
   <path class="fil36" d="M6912 5180l8 302c69,24 74,15 140,1l28 -367 1 -5c-75,16 -98,26 -176,3l-1 66z"/>
   <path class="fil36" d="M7392 5483c60,14 69,22 132,2 9,-50 12,-319 1,-362 -10,-1 -158,-1 -163,1l30 359z"/>
   <path class="fil9" d="M2771 5759l131 54c38,-31 536,-172 649,-205 48,-14 202,-36 164,-102 -58,-24 -805,266 -944,253z"/>
   <path class="fil31" d="M2762 2795c7,52 40,137 33,183 -25,-5 -26,-24 -47,-42 -23,16 -49,84 -62,113 61,-8 477,-132 527,-159l10 -36c-50,-6 -133,36 -225,24 -93,-13 -102,-45 -165,-96l-71 13z"/>
   <path class="fil35" d="M2439 2760c-46,10 -95,26 -142,24 -92,51 -474,84 -538,129 -17,50 -7,466 -7,553 0,177 10,386 -2,559 24,-45 10,-466 10,-550 0,-99 -12,-490 5,-555 25,-3 45,11 70,20 101,-5 298,-61 406,-84 79,-17 356,-90 415,-82l-11 -57 -206 43z"/>
   <path class="fil3" d="M8461 4402l22 -19c38,25 54,96 93,112 22,-55 10,-170 32,-220 18,-43 97,-85 129,-123 -49,-29 -218,-31 -278,-30l2 280z"/>
   <path class="fil27" d="M7536 3429l49 14 5 75c24,-19 146,-147 154,-170 -32,-62 -158,-167 -185,-230 19,-26 75,-47 106,-88 -36,30 -84,71 -135,72l-157 -172c131,206 169,70 163,499z"/>
   <path class="fil8" d="M4848 2242l41 36c41,34 127,46 179,52l59 1 20 -1c60,-8 123,-20 175,-52l44 -32c-158,-78 -356,-53 -518,-4z"/>
   <polygon class="fil29" points="7684,2939 8087,3050 8103,3053 8213,3000 8206,2985 7582,2829 "/>
   <path class="fil10" d="M5891 6127c-27,42 -31,68 -69,108l-16 34c25,23 210,84 251,95 -12,-64 -7,-167 44,-214l-195 -63 -15 40z"/>
   <path class="fil37" d="M5322 2278l871 212c0,-25 6,-59 -17,-73 -133,-24 -267,-57 -400,-84 -78,-16 -325,-60 -382,-87l-28 0 -44 32z"/>
   <path class="fil9" d="M2997 5868c15,25 41,44 68,56 42,-32 430,-138 532,-169 48,-14 152,-24 120,-90 -45,-13 -619,179 -720,203z"/>
   <path class="fil12" d="M8063 6693l-144 85 1191 -341c46,-15 148,-34 181,-61l-1 -35c-66,33 -225,70 -303,93 -103,30 -206,60 -308,90 -84,25 -571,184 -616,169z"/>
   <path class="fil28" d="M6866 5193l46 -13 1 -66 -14 -930 -43 -13c19,76 7,413 7,515 0,124 -15,402 3,507z"/>
   <path class="fil35" d="M6218 2472l880 196 0 23 13 -1 1 -58 2 -11 -29 -14c-85,1 -337,-66 -437,-87 -140,-30 -292,-70 -432,-92l2 44z"/>
   <path class="fil37" d="M4050 2414l28 68c22,-17 745,-197 811,-204l-41 -36 -24 8 -774 164z"/>
   <path class="fil9" d="M3118 6796c0,35 2,32 -30,46l-2 27c106,-23 240,-68 346,-101 58,-19 117,-35 176,-53 57,-18 136,-17 113,-88 -38,-13 -519,148 -603,169z"/>
   <path class="fil9" d="M3090 6627l12 77c120,-27 370,-109 512,-151 47,-14 144,-24 104,-90 -84,-4 -568,197 -628,164z"/>
   <path class="fil2" d="M2335 5813l204 -44 3 2 4 -80 -3 -23c-79,-49 -79,-42 -127,-126 -41,0 -25,10 -74,-6 5,58 10,227 -7,277z"/>
   <path class="fil18" d="M3460 2032c56,4 326,9 367,-3 2,-70 -89,-44 -133,-85 -77,-72 -104,-26 -177,-52l-43 0 -14 140z"/>
   <path class="fil9" d="M3202 6435c-26,23 -44,61 -57,94 115,-22 342,-101 476,-139 54,-15 123,-17 100,-85 -35,-12 -431,126 -509,142l-10 -12z"/>
   <path class="fil9" d="M3133 5978l61 62c40,-23 351,-108 435,-134 49,-14 118,-18 90,-83 -69,-13 -491,166 -586,155z"/>
   <path class="fil15" d="M6101 6150c-51,47 -56,150 -44,214 8,13 -9,13 14,8 10,-27 28,-72 56,-79l23 107 17 6c13,-46 23,-89 45,-133 33,-64 55,-57 85,-93l-162 -62 -34 32z"/>
   <path class="fil22" d="M2295 6868l-8 116 -2 53c118,52 254,-44 298,-149l-22 -5 -6 -15c-25,57 -60,53 -123,44 -46,-6 -97,-20 -137,-44z"/>
   <path class="fil38" d="M6843 2839c-26,68 -88,181 -90,252l56 41 78 36c4,-47 17,-340 3,-365l-47 36z"/>
   <path class="fil9" d="M3238 6112l25 62c55,-11 431,-121 463,-143l-6 -50c-67,-7 -376,125 -482,131z"/>
   <path class="fil9" d="M3268 6261l-30 83 487 -149 -2 -53c-63,-11 -413,137 -455,119z"/>
   <path class="fil39" d="M5409 7789c125,62 807,241 849,288l12 -26c-161,-29 -762,-308 -854,-301l-7 39z"/>
   <polygon class="fil40" points="6231,2498 7050,2701 7098,2691 7098,2668 6218,2472 "/>
   <path class="fil15" d="M3037 1303c175,-90 194,-94 394,-64 -7,-66 -15,-71 -82,-85 -88,-18 -184,5 -261,49 -55,32 -71,35 -51,100z"/>
   <path class="fil16" d="M6352 3590c81,16 362,119 413,115l5 -50c-33,-23 -369,-120 -426,-132l8 67z"/>
   <path class="fil8" d="M7534 5485l-10 0c-63,20 -72,12 -132,-2 -37,17 -143,66 -146,106 29,23 246,21 283,3l5 -107z"/>
   <path class="fil8" d="M7060 5483c-66,14 -71,23 -140,-1 -33,16 -145,74 -147,107 30,22 245,20 283,4l4 -110z"/>
   <path class="fil16" d="M6380 3775l11 -14c59,17 338,108 378,106l-1 -51c-69,-51 -311,-80 -405,-138l17 97z"/>
   <path class="fil29" d="M7865 3177c10,-56 128,-69 169,-101 -23,-20 -283,-90 -325,-93l-7 11 163 183z"/>
   <path class="fil10" d="M2162 6152c5,27 122,226 136,232 13,-40 32,-253 24,-292l-160 60z"/>
   <path class="fil16" d="M6391 3924c81,13 322,106 378,103l-1 -50c-30,-25 -329,-108 -385,-120l8 67z"/>
   <path class="fil7" d="M7415 7361l7 21c35,41 49,98 56,153l50 -75c34,13 28,23 53,44 29,-39 28,-149 -4,-189l-162 46z"/>
   <path class="fil4" d="M9370 2337c118,10 147,43 243,82l4 -17c-2,-53 -24,-121 -48,-168 -30,4 -98,45 -140,59 -52,18 -120,20 -160,34 42,2 60,-5 101,10z"/>
   <path class="fil16" d="M6412 4089c60,15 318,101 357,99l-1 -50c-29,-25 -307,-101 -364,-116l8 67z"/>
   <path class="fil41" d="M6496 8240c91,14 382,132 489,170 75,28 459,142 487,183l10 -53c-161,-44 -334,-105 -494,-158 -96,-32 -414,-121 -479,-161l-13 19z"/>
   <path class="fil7" d="M1151 5000l57 25c24,-46 52,-79 56,-135 4,-57 -22,-108 -85,-100 -75,45 -37,142 -28,210z"/>
   <path class="fil42" d="M3164 3272c37,19 102,84 138,78 7,-36 -18,-77 -27,-113l-17 -49c-64,2 -71,-24 -120,-53 -20,20 -39,40 -47,67l73 70z"/>
   <path class="fil16" d="M6441 4280l7 -21 321 90 0 -51c-55,-45 -283,-70 -346,-120l18 102z"/>
   <path class="fil8" d="M2838 8354c29,18 236,17 265,-1 -4,-39 -65,-61 -97,-83l-167 14 -1 70z"/>
   <path class="fil16" d="M6458 4430c55,-14 238,86 310,76l1 -47c-32,-27 -271,-90 -326,-103l15 74z"/>
   <path class="fil16" d="M6471 4590c69,14 240,85 297,77l1 -47c-34,-30 -246,-80 -305,-100l7 70z"/>
   <path class="fil42" d="M4011 3164c-64,13 -92,10 -143,-29 -5,34 -20,57 -13,88 28,17 214,71 243,66 12,-36 -8,-39 -32,-65 -21,-22 -29,-40 -55,-60z"/>
   <path class="fil8" d="M2294 8288c-90,9 -107,1 -191,-10 -26,18 -83,41 -84,73 30,23 226,19 270,7l5 -70z"/>
   <path class="fil16" d="M6499 4766c37,-20 208,69 266,61 23,-71 -54,-73 -115,-90 -55,-15 -110,-35 -166,-47l15 76z"/>
   <path class="fil28" d="M6813 3212l-383 -113c28,31 351,186 387,184l-4 -71z"/>
   <path class="fil16" d="M6511 4923c63,12 203,71 257,65l1 -46c-28,-27 -215,-74 -265,-88l7 69z"/>
   <path class="fil16" d="M6543 5134l3 -36c57,-10 156,59 219,51 30,-91 -79,-62 -241,-132 3,38 1,84 19,117z"/>
   <polygon class="fil39" points="6924,7492 6928,7527 7422,7382 7415,7361 "/>
   <path class="fil43" d="M1750 4313c-72,15 -42,94 -38,152 5,60 0,146 9,199 38,-46 44,-293 29,-351z"/>
   <path class="fil44" d="M3099 1601l24 8c7,57 9,86 83,83 55,-2 87,-27 99,-78l24 -5 -36 -11c-68,27 -110,29 -170,-16l-24 19z"/>
   <path class="fil8" d="M1532 4454l145 217c-12,-83 -10,-280 -145,-217z"/>
   <path class="fil26" d="M7112 2632l-1 58c36,36 125,50 148,-6l5 -31 -14 -31c-60,15 -76,16 -138,10z"/>
   <path class="fil44" d="M2292 6577c11,29 41,56 69,71l-2 -33 40 23 -17 -37 39 22 -14 -33 -23 -58 41 -21c-69,-46 -105,8 -133,66z"/>
   <path class="fil26" d="M3084 6603l21 -25c-43,-174 -138,-134 -148,-93l38 -11 -24 36 42 -4c3,35 -15,15 -24,46l40 -13 -25 47 48 -17 32 34z"/>
   <polygon class="fil2" points="6555,5300 6732,5237 6544,5188 "/>
   <path class="fil45" d="M3014 6264l31 167 17 -3c2,-52 22,-104 15,-155l-4 -38c-29,-4 -44,5 -59,29z"/>
   <path class="fil9" d="M2749 7466l-6 -73 -114 33 -4 59c44,3 72,-29 124,-19z"/>
   <path class="fil46" d="M3122 1544l1 38c60,45 102,43 170,16l2 -16c-100,4 -97,-8 -173,-57l0 19z"/>
   <polygon class="fil9" points="2734,7300 2727,7237 2629,7266 2625,7324 "/>
   <path class="fil28" d="M7536 3514l2 54c24,-6 40,-30 52,-50l-5 -75 -49 -14 0 85z"/>
   <path class="fil47" d="M3235 1449c21,57 128,49 126,-13 -32,-9 -99,-6 -126,13z"/>
   <path class="fil48" d="M2647 7097l-24 81c29,-20 46,-24 80,-31l20 48 -19 -133c-14,34 -20,28 -57,35z"/>
   <path class="fil28" d="M7515 3735c28,30 14,30 33,65 34,-20 17,16 41,-20l-1 -93 -73 48z"/>
   <path class="fil48" d="M2985 6187l29 77c15,-24 30,-33 59,-29l4 38c27,-56 -15,-75 -57,-103l-2 17 -33 0z"/>
   <path class="fil10" d="M6071 6372l79 28 -23 -107c-28,7 -46,52 -56,79z"/>
   <path class="fil49" d="M2543 5668l3 23c34,4 150,24 140,-31 -54,0 -61,19 -143,8z"/>
   <path class="fil50" d="M7300 3956c26,-20 63,-22 72,-47 -13,-1 -119,30 -126,64 28,9 106,-6 149,-4l-95 -13z"/>
   <polygon class="fil43" points="516,4519 640,4460 579,4430 "/>
   <polygon class="fil0" points="530,4380 533,4340 517,4323 460,4306 465,4361 "/>
   <path class="fil46" d="M2794 5457l37 -24c6,-43 11,-58 -33,-73l-14 -4 10 101z"/>
   <polygon class="fil43" points="671,4444 710,4425 708,4395 645,4372 645,4431 "/>
   <polygon class="fil40" points="2766,2740 2762,2795 2833,2782 2807,2728 "/>
   <path class="fil47" d="M2589 5553c21,37 102,27 98,-22 -28,-5 -75,5 -98,22z"/>
   <path class="fil46" d="M3447 1369c46,-13 52,-40 31,-82l-34 -10 3 92z"/>
   <path class="fil51" d="M7098 2483c21,43 90,40 107,2 -26,-15 -76,-10 -107,-2z"/>
   <path class="fil49" d="M7114 2621l-2 11c62,6 78,5 138,-10l1 -15c-28,1 -49,8 -77,7 -34,-1 -46,-16 -60,7z"/>
   <path class="fil52" d="M671 4444l128 99c-27,-33 -71,-79 -89,-118l-39 19z"/>
   <path class="fil16" d="M2647 7097c37,-7 43,-1 57,-35l5 -35 -45 14 -17 56z"/>
   <path class="fil43" d="M530 4380l81 31c-2,-33 -49,-56 -78,-71l-3 40z"/>
   <path class="fil7" d="M1065 4953c-22,-45 -43,-54 -93,-44 20,23 61,46 93,44z"/>
   <path class="fil43" d="M1715 4739c6,31 16,57 39,80l-7 -89 -32 9z"/>
   <path class="fil28" d="M2985 6187l33 0 2 -17c-7,-20 -26,-36 -45,-39l10 56z"/>
   <path class="fil37" d="M2766 2740l41 -12 -16 -44c-27,19 -21,23 -25,56z"/>
   <polygon class="fil53" points="7276,2349 7234,2320 7198,2344 7270,2357 "/>
   <path class="fil54" d="M3322 1273l80 1c-12,-31 -60,-26 -80,-1z"/>
   <path class="fil55" d="M2490 5392l77 -18c-28,-18 -64,-15 -77,18z"/>
   <path class="fil56" d="M3151 1315l66 -28c-25,-15 -57,-1 -66,28z"/>
   <path class="fil57" d="M2535 5411c-13,69 69,-10 0,0z"/>
   <path class="fil57" d="M3194 1327c-2,29 1,34 28,19 -7,-29 1,-22 -28,-19z"/>
   <path class="fil56" d="M7044 2342l64 0c-17,-24 -44,-17 -64,0z"/>
   <path class="fil57" d="M2688 5410c28,6 14,9 28,-11 -19,-26 -32,-18 -28,11z"/>
   <path class="fil57" d="M3353 1328c23,-5 15,4 20,-20 -27,-17 -38,-6 -20,20z"/>
   <path class="fil58" d="M7080 2395c15,-19 17,-24 -11,-25 -5,21 -12,13 11,25z"/>
   <path class="fil57" d="M7205 2389c24,17 17,13 28,-6 -14,-8 -8,-21 -28,6z"/>
   <polygon class="fil37" points="3062,6428 3045,6431 3053,6446 "/>
  </g>
 </g>
</svg>
